<svg id=""  xmlns="http://www.w3.org/2000/svg" width="113.683" height="113.764" viewBox="0 0 113.683 113.764">
  <path id=""  d="M81.188,149.546H4.753c-4.977,0-7.066-8.132-.755-9.243L47.1,132.748a2.428,2.428,0,0,1,.8-.044l34.4-1.778c2.666-.133,4.133,1.822,4.933,4.088L94.3,154.923l15.731,9.6a3.933,3.933,0,0,1,1.511,5.155,4,4,0,0,1-5.333,1.822l-18.353-9.021a4,4,0,0,1-1.911-2l-4.755-10.932Zm32.529-13.687a10.227,10.227,0,1,0-9.865,10.576,10.257,10.257,0,0,0,9.865-10.576Z" transform="translate(-0.043 -70)" fill-rule="evenodd"/>
  <path id=""  d="M23.553,96.432v13.332h5.333V96.432a1.783,1.783,0,0,1,1.778-1.778H68.436a1.783,1.783,0,0,1,1.778,1.778v17.331h5.333V96.432a1.783,1.783,0,0,1,1.778-1.778h6a7.978,7.978,0,0,1-1.733-2.577l-3.066-7.021a1.748,1.748,0,0,0-1.644-1.067H5.333A5.348,5.348,0,0,0,0,89.322v24.441H5.333V96.432A1.783,1.783,0,0,1,7.11,94.655H21.775a1.783,1.783,0,0,1,1.778,1.778ZM62.881,20.442A10.221,10.221,0,1,0,52.66,10.221,10.222,10.222,0,0,0,62.881,20.442ZM42.972,26.619c5.466-6.977,14.4-5.422,18.309,2.755l6.488,13.6L81.856,47.55a4.482,4.482,0,0,1,2.933,5.244,4.4,4.4,0,0,1-5.333,3.244L62.57,51.949A4.438,4.438,0,0,1,59.5,49.727L55.46,42.35a51.042,51.042,0,0,0-2.266,5.51,74.971,74.971,0,0,0-2.622,10.132l-3.022.222a8.182,8.182,0,0,0-1.466.133L29.774,61.192a93.873,93.873,0,0,1,3.955-17.153,60.6,60.6,0,0,1,9.243-17.42Zm50.794,73.724v9.421H99.1v-6.755l-5.333-2.666Z" fill-rule="evenodd"/>
</svg>
