<svg id=""  xmlns="http://www.w3.org/2000/svg" width="113.872" height="113.872" viewBox="0 0 113.872 113.872">
  <path id=""  d="M90.424,108.268a6.214,6.214,0,1,1-12.366-1.245l3.781-36.742H108.75l3.959,16.147a6.819,6.819,0,0,1,.178,1.913l-1.157,19.616a6.214,6.214,0,1,1-12.41-.667l1.068-18.727-3.959-16.1h-2.4l-3.6,35.808ZM118.269,0a12.677,12.677,0,1,1-12.677,12.677A12.7,12.7,0,0,1,118.269,0ZM83.307,57.826A89.875,89.875,0,0,1,86.064,45.06a76.982,76.982,0,0,1,8.9-18.949,6.552,6.552,0,0,1,7.918-2.535l12.811,5.382a5.741,5.741,0,0,1,3.559,4.048l6.138,30.87a5.348,5.348,0,1,1-10.5,2.046L110.93,45.994a54,54,0,0,0-2.624,8.629q-.334,1.6-.534,3.2H83.307Z" transform="translate(-43.318)"/>
  <path id=""  d="M0,177.719V133.237a8.03,8.03,0,0,1,8.007-8.007H66.989l1.023,5.249v.089H8.007a2.677,2.677,0,0,0-2.669,2.669v44.481Zm10.676-8.9v-34.7h5.338v34.7Zm.133-47.15A7.987,7.987,0,0,1,18.682,115h18.86c-.356,1.779-.667,3.559-.979,5.338H18.682a2.71,2.71,0,0,0-2.313,1.334ZM83.091,115h12.1a7.987,7.987,0,0,1,7.873,6.672h-5.6a2.655,2.655,0,0,0-2.313-1.334H84.114L83.091,115ZM103.2,134.127v34.7H97.859v-34.7Zm-18.059-8.9h20.728a8.03,8.03,0,0,1,8.007,8.007v44.481h-5.338V133.237a2.677,2.677,0,0,0-2.669-2.669H85.449a8.5,8.5,0,0,0,0-3.514l-.311-1.824Z" transform="translate(0 -63.846)"/>
</svg>
