<svg xmlns="http://www.w3.org/2000/svg" width="113.81" height="107.274" viewBox="0 0 113.81 107.274">
  <g transform="translate(0 0)">
    <path d="M64.291,280.559c-.253,2.53-.633,4.428-.759,6.452-.38,3.669-2.53,6.705-5.567,7.591s-7.844-.759-9.489-3.669c-.759-1.265-.633-3.036-.886-4.681a5.479,5.479,0,0,0,.127-.633c.506-6.958,1.012-14.044,1.392-21,.127-1.139-.127-2.4-.127-4.049a16.1,16.1,0,0,0-2.657.886c-2.151,1.392-4.428,2.783-6.452,4.3-2.783,2.024-5.314,4.175-7.971,6.073-3.163,2.277-6.326,4.555-9.615,6.579-5.44,3.543-10.628,2.4-15.688-.886C1.918,274.486.02,270.058.02,264.618c-.127-8.856-.127-17.586,0-26.442a32.021,32.021,0,0,1,1.392-7.591c1.012-3.543,3.289-6.2,5.44-8.983,2.91-3.543,6.705-5.061,10.754-6.452a20.018,20.018,0,0,1,4.555-1.139,17.549,17.549,0,0,1,14.3,5.314,10.237,10.237,0,0,1,2.53,5.567,91.132,91.132,0,0,1,.127,10.248c-2.657,0-5.061.127-7.465,0-2.277-.127-4.175.253-5.061,2.657.886,2.024,2.277,2.657,4.555,2.657,6.452-.127,12.9,0,19.484,0,4.049,0,5.061,1.265,5.946,3.543,1.012,2.151-.633,6.452-2.657,7.718a6.171,6.171,0,0,1-2.657.38c-7.591,0-15.182,0-22.773.127-3.163,0-6.2.253-9.362.38-2.657.127-5.314.253-7.465-1.645-2.53-2.151-2.53-6.579-.633-9.742,2.657-4.428,5.187-8.856,7.465-13.411.633-1.392,3.036-2.277,1.265-4.681-1.645-.506-3.036-.506-4.049,1.771-1.771,3.8-3.922,7.465-5.946,11.26-.253.506-.759.886-1.012,1.392a43.29,43.29,0,0,0-3.416,7.844c-.886,3.163,2.783,9.109,6.073,10.121a21.522,21.522,0,0,0,5.567,1.012c10.5,0,21,0,31.5-.127a25.63,25.63,0,0,0,5.314-.759c3.922-.759,6.705-5.187,6.705-8.6,0-4.049-.633-7.591-4.555-9.615a1.141,1.141,0,0,1,.127-.633,23,23,0,0,1,4.175,0,7.639,7.639,0,0,1,5.567,7.591c-.127,5.82-.253,11.766-.506,17.586,0,1.518.506,2.277,2.024,2.277h2.151c11.893,0,23.912.127,35.8,0,5.567-.127,9.109,5.187,8.35,9.995-.506,2.783-4.934,6.2-8.35,6.326-1.645.127-3.289,0-4.808,0H64.291Z" transform="translate(0.075 -187.568)" />
    <path d="M38.976,224.35a18.5,18.5,0,0,1-10.754-5.061c-3.036-2.657-3.922-6.832-3.922-10.248.253-8.983,5.82-15.941,15.688-15.941A15.106,15.106,0,0,1,55.17,208.788C54.917,218.657,48.465,223.464,38.976,224.35Z" transform="translate(6.539 -193.1)" />
    <path d="M82.076,219.553c-2.4,3.669-4.934,7.212-7.212,10.754-1.139,1.771-2.53,1.518-4.049.759a11.465,11.465,0,0,1-2.024-1.392,1.545,1.545,0,0,0-2.53.38c-1.518,1.771-2.91,3.8-4.555,5.44a4.706,4.706,0,0,1-2.783,1.265c-1.645-.127-2.024-1.392-.886-2.783,2.151-2.783,4.3-5.44,6.452-8.224,1.392-1.771,2.657-1.9,4.681-.759,3.289,2.024,3.669,1.9,5.693-1.771.886-1.392,1.771-2.783,2.783-4.175C78.913,217.4,80.051,217.4,82.076,219.553Z" transform="translate(15.312 -186.532)" />
    <path d="M39.386,256.2c-.253,4.175-.38,7.465-.506,10.754-.127,1.265-.38,2.4-2.024,2.4H21.8c2.4-3.543,6.2-4.428,8.6-6.959S36.1,258.351,39.386,256.2Z" transform="translate(5.876 -176.367)" />
    <path d="M55.8,221.831v5.314c0,.759.253,1.771-.127,2.4a13.547,13.547,0,0,1-2.277,2.4c-.506-.759-1.392-1.518-1.392-2.4,0-3.036.127-6.073.38-8.983a2.419,2.419,0,0,1,2.91-2.4,26.285,26.285,0,0,0,3.163,0v-7.085c0-.38-.253-.759-.253-1.139.127-1.265-.38-2.91,1.518-3.036s2.151,1.392,2.277,2.91l.759,9.868c.127,1.392-.506,2.277-2.151,2.277C59.212,221.831,57.82,221.831,55.8,221.831Z" transform="translate(13.884 -189.442)" />
    <path d="M60.222,238.867c3.669-.759,6.452,1.139,9.615,2.024.506-1.139,1.012-2.4,1.518-3.669.759-1.771,2.024-2.53,3.543-1.645a97.194,97.194,0,0,1,9.868,5.946c.506.253.38,1.645.253,2.53,0,.253-1.518.506-2.024.253a70.1,70.1,0,0,1-6.705-3.8c-1.265-.759-1.9-.759-2.4.759-1.392,4.175-2.151,4.3-6.2,2.53-1.645-.759-3.416-1.012-5.061-1.645C61.108,241.651,59.716,241.145,60.222,238.867Z" transform="translate(16.037 -181.934)" />
  </g>
</svg>
