<svg xmlns="http://www.w3.org/2000/svg" width="83.552" height="147.615" viewBox="0 0 83.552 147.615">
  <g transform="translate(0)">
    <path d="M256.387,251.977A11.889,11.889,0,1,0,244.5,240.089,11.851,11.851,0,0,0,256.387,251.977Z" transform="translate(-228.53 -217.041)" />
    <path id="Path_1010" data-name="Path 1010" d="M277.717,254.827a5.069,5.069,0,0,0-2.415-9.845l-18.2,4.644,11.887,7.43Z" transform="translate(-217.952 -203.111)" />
    <path d="M316.034,251.542a21.07,21.07,0,0,0,3.321-12.362c-.553-9.779-7.379-17.343-15.312-16.974-3.874.185-7.379,2.4-9.962,5.9a21.236,21.236,0,0,0,1.291,24.723c2.214,2.583,6.457,8.672,7.379,14.576h-.369l.553,9.594.185,2.03H287.808l-3.69-2.4-11.807-7.38-3.874-2.4a17.034,17.034,0,0,0-5.719-4.428c-.554-.185-.923-.369-1.476-.554a11.942,11.942,0,0,0-14.943,8.118l-9.04,33.026c-1.66,5.72,1.66,14.576,6.457,17.343l8.671,14.207-15.5,24.354A7.12,7.12,0,0,0,239.1,368.7a7.26,7.26,0,0,0,3.874,1.107,6.649,6.649,0,0,0,5.9-3.321l17.895-28.229a7.013,7.013,0,0,0,0-7.565l-8.486-13.838,4.059-.923L273.6,332.908v29.705a7.01,7.01,0,1,0,14.021,0V330.878A6.823,6.823,0,0,0,286.516,327l-18.264-27.675,2.952-12.915c0-.185.185-.553.185-.738.184-.738.369-1.476.553-2.03l10.7,6.827a6.371,6.371,0,0,0,3.321.922H308.1a6.142,6.142,0,0,0,6.088-6.089,5.889,5.889,0,0,0-2.952-5.166l-.184-2.4-.553-10.7h-.369C310.5,260.952,314,254.494,316.034,251.542Zm-8.855,15.683H305.7a30.511,30.511,0,0,0-3.505-9.963,9.139,9.139,0,0,0,3.136.369h.553a8.4,8.4,0,0,0,3.69-.923A34.83,34.83,0,0,0,307.178,267.225Zm6.457-17.343-.185.184a9.917,9.917,0,0,1-7.564,4.613c-6.088.369-11.622-6.089-11.992-14.207a17.26,17.26,0,0,1,2.767-10.7c2.029-2.768,4.612-4.428,7.564-4.613h.553c6.088,0,11.069,6.273,11.622,14.207A19,19,0,0,1,313.635,249.881Z" transform="translate(-235.82 -222.193)" />
    <path d="M268.1,264.2a6.5,6.5,0,0,0,0,13,6.348,6.348,0,0,0,6.5-6.5A6.581,6.581,0,0,0,268.1,264.2Z" transform="translate(-214.099 -186.746)" />
  </g>
</svg>
