<svg  xmlns="http://www.w3.org/2000/svg" width="154.021" height="140.16" viewBox="0 0 154.021 140.16">
  <path d="M147.861,53H6.161a6.161,6.161,0,0,0,0,12.322H18.483v46.206H23.1V65.322H130.918v46.206h4.621V65.322h12.322a6.161,6.161,0,0,0,0-12.322Z" transform="translate(0 28.631)"/>
  <path d="M41.033,12.322c0-3.7.924-12.322,9.241-12.322s9.241,8.625,9.241,12.322c0,5.237-3.234,12.322-9.241,12.322S41.033,17.558,41.033,12.322ZM73.07,32.961c-3.08-3.08-6.777-6.007-11.86-6.007H58.592L50.275,32.5l-8.317-5.545H37.029a8.526,8.526,0,0,0-7.855,5.237l-3.08,7.393,7.085,2.926,1.54-3.7a1.517,1.517,0,0,1,2.772,1.232l-2.464,6.161c.462,1.848.77,3.851,1.232,6.007l15.248,6.469h12.63l.308-4.929s.154-3.234,1.386-13.246h0C65.985,39.892,72.762,33.269,73.07,32.961Zm2.156,2.156-5.545,5.545L78.306,47.9l1.848-1.54a17.006,17.006,0,0,1,4-2.31ZM43.652,58.528,32.716,53.908h0c-2.31-.924-3.234-2.31-2-5.083L32.1,45.282h0l-7.085-2.926h0L23.475,45.9c-2.926,7.393.308,10.936,7.855,13.708a14.743,14.743,0,0,1,5.853-1.232h6.469Zm15.094,74.7c-4.929,0-5.391,1.848-5.391,3.851v3.08H64.137v-3.388C64.137,134.923,63.52,133.229,58.746,133.229Zm-22.333-2a10.824,10.824,0,0,1,5.391-1.078,11.593,11.593,0,0,1,5.7,1.232l.924-34.347H36.413Zm16.634.154a11.593,11.593,0,0,1,5.7-1.232,10.824,10.824,0,0,1,5.391,1.078V97.034H52.123ZM41.8,133.229c-4.929,0-5.391,1.848-5.391,3.851v3.08H47.194v-3.08C47.194,135.077,46.732,133.229,41.8,133.229Z" transform="translate(12.104)" />
  <path d="M30.143,56.345c0,6.007-7.085,9.241-12.322,9.241-3.7,0-12.322-.924-12.322-9.241S14.125,47.1,17.822,47.1C23.058,47.1,30.143,50.338,30.143,56.345ZM139.5,47.1a6.179,6.179,0,0,0-6.161,6.161V65.586H139.5a1.455,1.455,0,0,0,1.54-1.54v-15.4A1.455,1.455,0,0,0,139.5,47.1Zm-14.324-6.161V25.54a1.455,1.455,0,0,0-1.54-1.54,6.179,6.179,0,0,0-6.161,6.161V42.483h6.161A1.455,1.455,0,0,0,125.175,40.942Zm-29.264,1.54h18.483v-7.7l-14.478-1.54a11.22,11.22,0,0,0-8.471,2.618L76.35,48.181l14.786,1.386ZM76.35,54.8H86.361a6.9,6.9,0,0,1,6.931,6.931,6.74,6.74,0,0,1-1.232,3.851h38.2V56.653L76.35,51.416Zm10.011,3.08H46.316a1.543,1.543,0,0,1-1.54-1.54,1.455,1.455,0,0,1,1.54-1.54H73.269V48.643H46.316c-6.623,0-12.322,5.391-12.322,11.552a5.457,5.457,0,0,0,5.391,5.391H86.361a3.851,3.851,0,0,0,0-7.7Z" transform="translate(2.971 12.965)" />
</svg>
